<mxfile host="app.diagrams.net" agent="Mozilla/5.0 (Windows NT 10.0; Win64; x64) AppleWebKit/537.36 (KHTML, like Gecko) Chrome/131.0.0.0 Safari/537.36" version="24.9.2">
  <diagram name="第 1 页" id="Bx0H68gc-shff_Ud0vV9">
    <mxGraphModel dx="2049" dy="1066" grid="1" gridSize="10" guides="1" tooltips="1" connect="1" arrows="1" fold="1" page="1" pageScale="1" pageWidth="827" pageHeight="1169" math="0" shadow="0">
      <root>
        <mxCell id="0" />
        <mxCell id="1" parent="0" />
        <mxCell id="v6vCpeJF_FBUwYWR2NFN-11" style="edgeStyle=orthogonalEdgeStyle;rounded=0;orthogonalLoop=1;jettySize=auto;html=1;" edge="1" parent="1" source="v6vCpeJF_FBUwYWR2NFN-1" target="v6vCpeJF_FBUwYWR2NFN-10">
          <mxGeometry relative="1" as="geometry" />
        </mxCell>
        <mxCell id="v6vCpeJF_FBUwYWR2NFN-12" value="常规业务&lt;div&gt;接口请求&lt;/div&gt;" style="edgeLabel;html=1;align=center;verticalAlign=middle;resizable=0;points=[];fontSize=14;" vertex="1" connectable="0" parent="v6vCpeJF_FBUwYWR2NFN-11">
          <mxGeometry x="0.0182" y="4" relative="1" as="geometry">
            <mxPoint as="offset" />
          </mxGeometry>
        </mxCell>
        <mxCell id="v6vCpeJF_FBUwYWR2NFN-1" value="浏览器" style="rounded=1;whiteSpace=wrap;html=1;fillColor=#fff2cc;strokeColor=#d6b656;fontSize=16;" vertex="1" parent="1">
          <mxGeometry x="170" y="110" width="120" height="60" as="geometry" />
        </mxCell>
        <mxCell id="v6vCpeJF_FBUwYWR2NFN-2" value="用户行为数据：浏览，点击，下单，停留等" style="shape=callout;whiteSpace=wrap;html=1;perimeter=calloutPerimeter;position2=1;fillColor=#d5e8d4;strokeColor=#82b366;fontSize=16;" vertex="1" parent="1">
          <mxGeometry x="60" y="10" width="160" height="100" as="geometry" />
        </mxCell>
        <mxCell id="v6vCpeJF_FBUwYWR2NFN-9" style="edgeStyle=orthogonalEdgeStyle;rounded=0;orthogonalLoop=1;jettySize=auto;html=1;" edge="1" parent="1" source="v6vCpeJF_FBUwYWR2NFN-3" target="v6vCpeJF_FBUwYWR2NFN-1">
          <mxGeometry relative="1" as="geometry" />
        </mxCell>
        <mxCell id="v6vCpeJF_FBUwYWR2NFN-3" value="猫大" style="shape=umlActor;verticalLabelPosition=bottom;verticalAlign=top;html=1;outlineConnect=0;fillColor=#d5e8d4;strokeColor=#82b366;" vertex="1" parent="1">
          <mxGeometry x="50" y="140" width="30" height="60" as="geometry" />
        </mxCell>
        <mxCell id="v6vCpeJF_FBUwYWR2NFN-22" style="edgeStyle=orthogonalEdgeStyle;rounded=0;orthogonalLoop=1;jettySize=auto;html=1;entryX=0;entryY=0.75;entryDx=0;entryDy=0;" edge="1" parent="1" source="v6vCpeJF_FBUwYWR2NFN-10" target="v6vCpeJF_FBUwYWR2NFN-20">
          <mxGeometry relative="1" as="geometry" />
        </mxCell>
        <mxCell id="v6vCpeJF_FBUwYWR2NFN-10" value="Nginx" style="ellipse;shape=cloud;whiteSpace=wrap;html=1;fillColor=#fff2cc;strokeColor=#d6b656;fontSize=16;" vertex="1" parent="1">
          <mxGeometry x="400" y="100" width="120" height="80" as="geometry" />
        </mxCell>
        <mxCell id="v6vCpeJF_FBUwYWR2NFN-15" style="edgeStyle=orthogonalEdgeStyle;rounded=0;orthogonalLoop=1;jettySize=auto;html=1;entryX=-0.017;entryY=0.4;entryDx=0;entryDy=0;entryPerimeter=0;" edge="1" parent="1" source="v6vCpeJF_FBUwYWR2NFN-10" target="v6vCpeJF_FBUwYWR2NFN-13">
          <mxGeometry relative="1" as="geometry" />
        </mxCell>
        <mxCell id="v6vCpeJF_FBUwYWR2NFN-16" value="Mysql数据库" style="shape=cylinder3;whiteSpace=wrap;html=1;boundedLbl=1;backgroundOutline=1;size=15;fillColor=#fff2cc;strokeColor=#d6b656;" vertex="1" parent="1">
          <mxGeometry x="900" y="30" width="60" height="80" as="geometry" />
        </mxCell>
        <mxCell id="v6vCpeJF_FBUwYWR2NFN-17" style="edgeStyle=orthogonalEdgeStyle;rounded=0;orthogonalLoop=1;jettySize=auto;html=1;entryX=0;entryY=0;entryDx=0;entryDy=52.5;entryPerimeter=0;" edge="1" parent="1" source="v6vCpeJF_FBUwYWR2NFN-14" target="v6vCpeJF_FBUwYWR2NFN-16">
          <mxGeometry relative="1" as="geometry" />
        </mxCell>
        <mxCell id="v6vCpeJF_FBUwYWR2NFN-18" value="" style="group" vertex="1" connectable="0" parent="1">
          <mxGeometry x="650" y="40" width="130" height="70" as="geometry" />
        </mxCell>
        <mxCell id="v6vCpeJF_FBUwYWR2NFN-13" value="" style="rounded=1;whiteSpace=wrap;html=1;fillColor=#fff2cc;strokeColor=#d6b656;" vertex="1" parent="v6vCpeJF_FBUwYWR2NFN-18">
          <mxGeometry width="120" height="60" as="geometry" />
        </mxCell>
        <mxCell id="v6vCpeJF_FBUwYWR2NFN-14" value="业务服务器A&lt;div&gt;（SpringCloud）&lt;/div&gt;" style="rounded=1;whiteSpace=wrap;html=1;fillColor=#fff2cc;strokeColor=#d6b656;fontSize=16;" vertex="1" parent="v6vCpeJF_FBUwYWR2NFN-18">
          <mxGeometry x="10" y="10" width="120" height="60" as="geometry" />
        </mxCell>
        <mxCell id="v6vCpeJF_FBUwYWR2NFN-19" value="" style="group" vertex="1" connectable="0" parent="1">
          <mxGeometry x="650" y="190" width="130" height="70" as="geometry" />
        </mxCell>
        <mxCell id="v6vCpeJF_FBUwYWR2NFN-20" value="" style="rounded=1;whiteSpace=wrap;html=1;fillColor=#fff2cc;strokeColor=#d6b656;" vertex="1" parent="v6vCpeJF_FBUwYWR2NFN-19">
          <mxGeometry width="120" height="60" as="geometry" />
        </mxCell>
        <mxCell id="v6vCpeJF_FBUwYWR2NFN-38" style="edgeStyle=orthogonalEdgeStyle;rounded=0;orthogonalLoop=1;jettySize=auto;html=1;" edge="1" parent="v6vCpeJF_FBUwYWR2NFN-19" source="v6vCpeJF_FBUwYWR2NFN-21">
          <mxGeometry relative="1" as="geometry">
            <mxPoint x="70" y="140" as="targetPoint" />
          </mxGeometry>
        </mxCell>
        <mxCell id="v6vCpeJF_FBUwYWR2NFN-21" value="业务服务器B&lt;div&gt;（SpringCloud）&lt;/div&gt;" style="rounded=1;whiteSpace=wrap;html=1;fillColor=#fff2cc;strokeColor=#d6b656;fontSize=16;" vertex="1" parent="v6vCpeJF_FBUwYWR2NFN-19">
          <mxGeometry x="10" y="10" width="120" height="60" as="geometry" />
        </mxCell>
        <mxCell id="v6vCpeJF_FBUwYWR2NFN-53" style="edgeStyle=orthogonalEdgeStyle;rounded=0;orthogonalLoop=1;jettySize=auto;html=1;entryX=0.5;entryY=0;entryDx=0;entryDy=0;endArrow=none;endFill=0;" edge="1" parent="1" source="v6vCpeJF_FBUwYWR2NFN-23" target="v6vCpeJF_FBUwYWR2NFN-52">
          <mxGeometry relative="1" as="geometry" />
        </mxCell>
        <mxCell id="v6vCpeJF_FBUwYWR2NFN-23" value="Mysql数据库" style="shape=cylinder3;whiteSpace=wrap;html=1;boundedLbl=1;backgroundOutline=1;size=15;fillColor=#fff2cc;strokeColor=#d6b656;" vertex="1" parent="1">
          <mxGeometry x="900" y="185" width="60" height="80" as="geometry" />
        </mxCell>
        <mxCell id="v6vCpeJF_FBUwYWR2NFN-24" style="edgeStyle=orthogonalEdgeStyle;rounded=0;orthogonalLoop=1;jettySize=auto;html=1;entryX=0;entryY=0;entryDx=0;entryDy=52.5;entryPerimeter=0;" edge="1" parent="1" source="v6vCpeJF_FBUwYWR2NFN-21" target="v6vCpeJF_FBUwYWR2NFN-23">
          <mxGeometry relative="1" as="geometry" />
        </mxCell>
        <mxCell id="v6vCpeJF_FBUwYWR2NFN-33" style="edgeStyle=orthogonalEdgeStyle;rounded=0;orthogonalLoop=1;jettySize=auto;html=1;entryX=0.5;entryY=0;entryDx=0;entryDy=0;" edge="1" parent="1" source="v6vCpeJF_FBUwYWR2NFN-25" target="v6vCpeJF_FBUwYWR2NFN-31">
          <mxGeometry relative="1" as="geometry" />
        </mxCell>
        <mxCell id="v6vCpeJF_FBUwYWR2NFN-25" value="Nginx" style="ellipse;shape=cloud;whiteSpace=wrap;html=1;fillColor=#dae8fc;strokeColor=#6c8ebf;fontSize=16;" vertex="1" parent="1">
          <mxGeometry x="380" y="300" width="120" height="80" as="geometry" />
        </mxCell>
        <mxCell id="v6vCpeJF_FBUwYWR2NFN-28" style="edgeStyle=orthogonalEdgeStyle;rounded=0;orthogonalLoop=1;jettySize=auto;html=1;entryX=0.092;entryY=0.513;entryDx=0;entryDy=0;entryPerimeter=0;" edge="1" parent="1" source="v6vCpeJF_FBUwYWR2NFN-1" target="v6vCpeJF_FBUwYWR2NFN-25">
          <mxGeometry relative="1" as="geometry">
            <Array as="points">
              <mxPoint x="220" y="341" />
            </Array>
          </mxGeometry>
        </mxCell>
        <mxCell id="v6vCpeJF_FBUwYWR2NFN-29" value="前端埋点日志" style="edgeLabel;html=1;align=center;verticalAlign=middle;resizable=0;points=[];fontSize=14;" vertex="1" connectable="0" parent="v6vCpeJF_FBUwYWR2NFN-28">
          <mxGeometry x="-0.5381" y="3" relative="1" as="geometry">
            <mxPoint as="offset" />
          </mxGeometry>
        </mxCell>
        <mxCell id="v6vCpeJF_FBUwYWR2NFN-30" value="" style="group" vertex="1" connectable="0" parent="1">
          <mxGeometry x="380" y="515" width="130" height="70" as="geometry" />
        </mxCell>
        <mxCell id="v6vCpeJF_FBUwYWR2NFN-31" value="" style="rounded=1;whiteSpace=wrap;html=1;fillColor=#dae8fc;strokeColor=#6c8ebf;" vertex="1" parent="v6vCpeJF_FBUwYWR2NFN-30">
          <mxGeometry width="120" height="60" as="geometry" />
        </mxCell>
        <mxCell id="v6vCpeJF_FBUwYWR2NFN-32" value="日志服务&lt;div&gt;（Springboot）&lt;/div&gt;" style="rounded=1;whiteSpace=wrap;html=1;fillColor=#dae8fc;strokeColor=#6c8ebf;fontSize=16;" vertex="1" parent="v6vCpeJF_FBUwYWR2NFN-30">
          <mxGeometry x="10" y="10" width="120" height="60" as="geometry" />
        </mxCell>
        <mxCell id="v6vCpeJF_FBUwYWR2NFN-43" style="edgeStyle=orthogonalEdgeStyle;rounded=0;orthogonalLoop=1;jettySize=auto;html=1;startArrow=none;startFill=0;endArrow=none;endFill=0;" edge="1" parent="1" source="v6vCpeJF_FBUwYWR2NFN-34">
          <mxGeometry relative="1" as="geometry">
            <mxPoint x="740" y="660" as="targetPoint" />
          </mxGeometry>
        </mxCell>
        <mxCell id="v6vCpeJF_FBUwYWR2NFN-34" value="磁盘日志文件" style="rounded=0;whiteSpace=wrap;html=1;fillColor=#dae8fc;strokeColor=#6c8ebf;fontSize=15;" vertex="1" parent="1">
          <mxGeometry x="480" y="670" width="200" height="35" as="geometry" />
        </mxCell>
        <mxCell id="v6vCpeJF_FBUwYWR2NFN-36" style="edgeStyle=orthogonalEdgeStyle;rounded=0;orthogonalLoop=1;jettySize=auto;html=1;entryX=0.25;entryY=0;entryDx=0;entryDy=0;" edge="1" parent="1" source="v6vCpeJF_FBUwYWR2NFN-32" target="v6vCpeJF_FBUwYWR2NFN-34">
          <mxGeometry relative="1" as="geometry" />
        </mxCell>
        <mxCell id="v6vCpeJF_FBUwYWR2NFN-45" style="edgeStyle=orthogonalEdgeStyle;rounded=0;orthogonalLoop=1;jettySize=auto;html=1;entryX=0.5;entryY=0;entryDx=0;entryDy=0;endArrow=none;endFill=0;" edge="1" parent="1" source="v6vCpeJF_FBUwYWR2NFN-37" target="v6vCpeJF_FBUwYWR2NFN-40">
          <mxGeometry relative="1" as="geometry" />
        </mxCell>
        <mxCell id="v6vCpeJF_FBUwYWR2NFN-37" value="磁盘日志文件" style="rounded=0;whiteSpace=wrap;html=1;fillColor=#dae8fc;strokeColor=#6c8ebf;fontSize=15;" vertex="1" parent="1">
          <mxGeometry x="630" y="330" width="200" height="35" as="geometry" />
        </mxCell>
        <mxCell id="v6vCpeJF_FBUwYWR2NFN-46" style="edgeStyle=orthogonalEdgeStyle;rounded=0;orthogonalLoop=1;jettySize=auto;html=1;" edge="1" parent="1" source="v6vCpeJF_FBUwYWR2NFN-40" target="v6vCpeJF_FBUwYWR2NFN-44">
          <mxGeometry relative="1" as="geometry" />
        </mxCell>
        <mxCell id="v6vCpeJF_FBUwYWR2NFN-40" value="日志采集&lt;div&gt;推送&lt;/div&gt;" style="ellipse;whiteSpace=wrap;html=1;fontSize=16;" vertex="1" parent="1">
          <mxGeometry x="670" y="430" width="120" height="80" as="geometry" />
        </mxCell>
        <mxCell id="v6vCpeJF_FBUwYWR2NFN-47" style="edgeStyle=orthogonalEdgeStyle;rounded=0;orthogonalLoop=1;jettySize=auto;html=1;entryX=0;entryY=0.75;entryDx=0;entryDy=0;" edge="1" parent="1" source="v6vCpeJF_FBUwYWR2NFN-41" target="v6vCpeJF_FBUwYWR2NFN-44">
          <mxGeometry relative="1" as="geometry" />
        </mxCell>
        <mxCell id="v6vCpeJF_FBUwYWR2NFN-41" value="日志采集&lt;div&gt;推送&lt;/div&gt;" style="ellipse;whiteSpace=wrap;html=1;fontSize=16;" vertex="1" parent="1">
          <mxGeometry x="680" y="580" width="120" height="80" as="geometry" />
        </mxCell>
        <mxCell id="v6vCpeJF_FBUwYWR2NFN-44" value="队列缓冲&lt;div&gt;（Kafka）&lt;/div&gt;" style="shape=process;whiteSpace=wrap;html=1;backgroundOutline=1;fillColor=#dae8fc;strokeColor=#6c8ebf;fontSize=16;" vertex="1" parent="1">
          <mxGeometry x="950" y="480" width="120" height="90" as="geometry" />
        </mxCell>
        <mxCell id="v6vCpeJF_FBUwYWR2NFN-50" style="edgeStyle=orthogonalEdgeStyle;rounded=0;orthogonalLoop=1;jettySize=auto;html=1;entryX=-0.017;entryY=0.611;entryDx=0;entryDy=0;entryPerimeter=0;" edge="1" parent="1" source="v6vCpeJF_FBUwYWR2NFN-32" target="v6vCpeJF_FBUwYWR2NFN-44">
          <mxGeometry relative="1" as="geometry" />
        </mxCell>
        <mxCell id="v6vCpeJF_FBUwYWR2NFN-51" value="推送" style="edgeLabel;html=1;align=center;verticalAlign=middle;resizable=0;points=[];fontSize=14;" vertex="1" connectable="0" parent="v6vCpeJF_FBUwYWR2NFN-50">
          <mxGeometry x="-0.6288" y="3" relative="1" as="geometry">
            <mxPoint as="offset" />
          </mxGeometry>
        </mxCell>
        <mxCell id="v6vCpeJF_FBUwYWR2NFN-54" value="" style="edgeStyle=orthogonalEdgeStyle;rounded=0;orthogonalLoop=1;jettySize=auto;html=1;" edge="1" parent="1" source="v6vCpeJF_FBUwYWR2NFN-52" target="v6vCpeJF_FBUwYWR2NFN-44">
          <mxGeometry relative="1" as="geometry" />
        </mxCell>
        <mxCell id="v6vCpeJF_FBUwYWR2NFN-52" value="Binlog监听" style="ellipse;whiteSpace=wrap;html=1;" vertex="1" parent="1">
          <mxGeometry x="870" y="322.5" width="120" height="50" as="geometry" />
        </mxCell>
        <mxCell id="v6vCpeJF_FBUwYWR2NFN-55" value="业务数据：注册，登录，营销，下单，支付等" style="shape=callout;whiteSpace=wrap;html=1;perimeter=calloutPerimeter;position2=0;size=60;position=0.47;fillColor=#d5e8d4;strokeColor=#82b366;fontSize=16;" vertex="1" parent="1">
          <mxGeometry x="1020" y="190" width="210" height="140" as="geometry" />
        </mxCell>
        <mxCell id="v6vCpeJF_FBUwYWR2NFN-79" style="edgeStyle=orthogonalEdgeStyle;rounded=0;orthogonalLoop=1;jettySize=auto;html=1;" edge="1" parent="1" source="v6vCpeJF_FBUwYWR2NFN-56">
          <mxGeometry relative="1" as="geometry">
            <mxPoint x="1265" y="790" as="targetPoint" />
          </mxGeometry>
        </mxCell>
        <mxCell id="v6vCpeJF_FBUwYWR2NFN-80" value="分层处理" style="edgeLabel;html=1;align=center;verticalAlign=middle;resizable=0;points=[];fontSize=14;" vertex="1" connectable="0" parent="v6vCpeJF_FBUwYWR2NFN-79">
          <mxGeometry x="-0.1472" y="3" relative="1" as="geometry">
            <mxPoint y="1" as="offset" />
          </mxGeometry>
        </mxCell>
        <mxCell id="v6vCpeJF_FBUwYWR2NFN-56" value="数据处理（离线/实时）&lt;div&gt;（Flink/Spark）&lt;/div&gt;" style="rounded=1;whiteSpace=wrap;html=1;fillColor=#dae8fc;strokeColor=#6c8ebf;fontSize=16;" vertex="1" parent="1">
          <mxGeometry x="1190" y="477" width="150" height="82.5" as="geometry" />
        </mxCell>
        <mxCell id="v6vCpeJF_FBUwYWR2NFN-58" style="edgeStyle=orthogonalEdgeStyle;rounded=0;orthogonalLoop=1;jettySize=auto;html=1;entryX=-0.007;entryY=0.582;entryDx=0;entryDy=0;entryPerimeter=0;" edge="1" parent="1" source="v6vCpeJF_FBUwYWR2NFN-44" target="v6vCpeJF_FBUwYWR2NFN-56">
          <mxGeometry relative="1" as="geometry" />
        </mxCell>
        <mxCell id="v6vCpeJF_FBUwYWR2NFN-59" value="消费" style="edgeLabel;html=1;align=center;verticalAlign=middle;resizable=0;points=[];fontSize=14;" vertex="1" connectable="0" parent="v6vCpeJF_FBUwYWR2NFN-58">
          <mxGeometry x="0.0088" relative="1" as="geometry">
            <mxPoint as="offset" />
          </mxGeometry>
        </mxCell>
        <mxCell id="v6vCpeJF_FBUwYWR2NFN-60" value="数据存储&lt;div&gt;（HDFS）&lt;/div&gt;" style="rounded=1;whiteSpace=wrap;html=1;fillColor=#dae8fc;strokeColor=#6c8ebf;fontSize=16;" vertex="1" parent="1">
          <mxGeometry x="1186" y="330" width="140" height="80" as="geometry" />
        </mxCell>
        <mxCell id="v6vCpeJF_FBUwYWR2NFN-61" style="edgeStyle=orthogonalEdgeStyle;rounded=0;orthogonalLoop=1;jettySize=auto;html=1;entryX=0.564;entryY=1.025;entryDx=0;entryDy=0;entryPerimeter=0;" edge="1" parent="1" source="v6vCpeJF_FBUwYWR2NFN-56" target="v6vCpeJF_FBUwYWR2NFN-60">
          <mxGeometry relative="1" as="geometry" />
        </mxCell>
        <mxCell id="v6vCpeJF_FBUwYWR2NFN-62" value="" style="whiteSpace=wrap;html=1;fillColor=#dae8fc;strokeColor=#6c8ebf;" vertex="1" parent="1">
          <mxGeometry x="500" y="770" width="190" height="370" as="geometry" />
        </mxCell>
        <mxCell id="v6vCpeJF_FBUwYWR2NFN-63" value="" style="whiteSpace=wrap;html=1;fillColor=#dae8fc;strokeColor=#6c8ebf;" vertex="1" parent="1">
          <mxGeometry x="870" y="770" width="190" height="300" as="geometry" />
        </mxCell>
        <mxCell id="v6vCpeJF_FBUwYWR2NFN-64" value="数据可视化服务&lt;div&gt;（Springboot）&lt;/div&gt;" style="rounded=1;whiteSpace=wrap;html=1;fillColor=#dae8fc;strokeColor=#6c8ebf;fontSize=16;" vertex="1" parent="1">
          <mxGeometry x="525" y="780" width="140" height="60" as="geometry" />
        </mxCell>
        <mxCell id="v6vCpeJF_FBUwYWR2NFN-65" value="用户画像" style="rounded=1;whiteSpace=wrap;html=1;fillColor=#dae8fc;strokeColor=#6c8ebf;fontSize=16;" vertex="1" parent="1">
          <mxGeometry x="525" y="858" width="140" height="60" as="geometry" />
        </mxCell>
        <mxCell id="v6vCpeJF_FBUwYWR2NFN-66" value="推荐服务" style="rounded=1;whiteSpace=wrap;html=1;fillColor=#dae8fc;strokeColor=#6c8ebf;fontSize=16;" vertex="1" parent="1">
          <mxGeometry x="525" y="928" width="140" height="60" as="geometry" />
        </mxCell>
        <mxCell id="v6vCpeJF_FBUwYWR2NFN-67" value="风控服务" style="rounded=1;whiteSpace=wrap;html=1;fillColor=#dae8fc;strokeColor=#6c8ebf;fontSize=16;" vertex="1" parent="1">
          <mxGeometry x="525" y="1000" width="140" height="60" as="geometry" />
        </mxCell>
        <mxCell id="v6vCpeJF_FBUwYWR2NFN-68" value="精准营销" style="rounded=1;whiteSpace=wrap;html=1;fillColor=#dae8fc;strokeColor=#6c8ebf;fontSize=16;" vertex="1" parent="1">
          <mxGeometry x="525" y="1070" width="140" height="60" as="geometry" />
        </mxCell>
        <mxCell id="v6vCpeJF_FBUwYWR2NFN-69" value="赋能业务" style="shape=callout;whiteSpace=wrap;html=1;perimeter=calloutPerimeter;position2=0.03;fillColor=#d5e8d4;strokeColor=#82b366;fontSize=16;" vertex="1" parent="1">
          <mxGeometry x="707" y="710" width="120" height="80" as="geometry" />
        </mxCell>
        <mxCell id="v6vCpeJF_FBUwYWR2NFN-70" value="Mysql&lt;div&gt;ElasticSearch&lt;/div&gt;&lt;div&gt;ClickHouse&lt;/div&gt;&lt;div&gt;Hbase&lt;/div&gt;" style="shape=cylinder3;whiteSpace=wrap;html=1;boundedLbl=1;backgroundOutline=1;size=15;fillColor=#dae8fc;strokeColor=#6c8ebf;fontSize=16;" vertex="1" parent="1">
          <mxGeometry x="915" y="800" width="100" height="110" as="geometry" />
        </mxCell>
        <mxCell id="v6vCpeJF_FBUwYWR2NFN-71" value="NoSql&lt;div&gt;（Redis）&lt;/div&gt;" style="ellipse;shape=cloud;whiteSpace=wrap;html=1;fillColor=#dae8fc;strokeColor=#6c8ebf;fontSize=16;" vertex="1" parent="1">
          <mxGeometry x="905" y="950" width="120" height="80" as="geometry" />
        </mxCell>
        <mxCell id="v6vCpeJF_FBUwYWR2NFN-72" style="edgeStyle=orthogonalEdgeStyle;rounded=0;orthogonalLoop=1;jettySize=auto;html=1;entryX=1.005;entryY=0.419;entryDx=0;entryDy=0;entryPerimeter=0;" edge="1" parent="1" source="v6vCpeJF_FBUwYWR2NFN-63" target="v6vCpeJF_FBUwYWR2NFN-62">
          <mxGeometry relative="1" as="geometry" />
        </mxCell>
        <mxCell id="v6vCpeJF_FBUwYWR2NFN-73" value="使用" style="text;html=1;align=center;verticalAlign=middle;resizable=0;points=[];autosize=1;strokeColor=none;fillColor=none;" vertex="1" parent="1">
          <mxGeometry x="745" y="908" width="50" height="30" as="geometry" />
        </mxCell>
        <mxCell id="v6vCpeJF_FBUwYWR2NFN-82" style="edgeStyle=orthogonalEdgeStyle;rounded=0;orthogonalLoop=1;jettySize=auto;html=1;entryX=0;entryY=0.5;entryDx=0;entryDy=0;" edge="1" parent="1" source="v6vCpeJF_FBUwYWR2NFN-74" target="v6vCpeJF_FBUwYWR2NFN-81">
          <mxGeometry relative="1" as="geometry" />
        </mxCell>
        <mxCell id="v6vCpeJF_FBUwYWR2NFN-83" value="存储" style="edgeLabel;html=1;align=center;verticalAlign=middle;resizable=0;points=[];fontSize=14;" vertex="1" connectable="0" parent="v6vCpeJF_FBUwYWR2NFN-82">
          <mxGeometry x="-0.0353" y="1" relative="1" as="geometry">
            <mxPoint as="offset" />
          </mxGeometry>
        </mxCell>
        <mxCell id="v6vCpeJF_FBUwYWR2NFN-86" style="edgeStyle=orthogonalEdgeStyle;rounded=0;orthogonalLoop=1;jettySize=auto;html=1;entryX=1;entryY=0.5;entryDx=0;entryDy=0;" edge="1" parent="1" source="v6vCpeJF_FBUwYWR2NFN-74" target="v6vCpeJF_FBUwYWR2NFN-63">
          <mxGeometry relative="1" as="geometry" />
        </mxCell>
        <mxCell id="v6vCpeJF_FBUwYWR2NFN-87" value="存储" style="edgeLabel;html=1;align=center;verticalAlign=middle;resizable=0;points=[];fontSize=14;" vertex="1" connectable="0" parent="v6vCpeJF_FBUwYWR2NFN-86">
          <mxGeometry x="-0.1525" y="-1" relative="1" as="geometry">
            <mxPoint as="offset" />
          </mxGeometry>
        </mxCell>
        <mxCell id="v6vCpeJF_FBUwYWR2NFN-74" value="" style="whiteSpace=wrap;html=1;fillColor=#dae8fc;strokeColor=#6c8ebf;" vertex="1" parent="1">
          <mxGeometry x="1175" y="793" width="180" height="260" as="geometry" />
        </mxCell>
        <mxCell id="v6vCpeJF_FBUwYWR2NFN-75" value="&lt;font style=&quot;font-size: 16px;&quot;&gt;ODS&lt;/font&gt;" style="rounded=0;whiteSpace=wrap;html=1;fillColor=#dae8fc;strokeColor=#6c8ebf;" vertex="1" parent="1">
          <mxGeometry x="1206" y="820" width="120" height="30" as="geometry" />
        </mxCell>
        <mxCell id="v6vCpeJF_FBUwYWR2NFN-76" value="&lt;font style=&quot;font-size: 16px;&quot;&gt;DWD&lt;/font&gt;" style="rounded=0;whiteSpace=wrap;html=1;fillColor=#dae8fc;strokeColor=#6c8ebf;" vertex="1" parent="1">
          <mxGeometry x="1206" y="873" width="120" height="30" as="geometry" />
        </mxCell>
        <mxCell id="v6vCpeJF_FBUwYWR2NFN-77" value="&lt;font style=&quot;font-size: 16px;&quot;&gt;DWM&lt;/font&gt;" style="rounded=0;whiteSpace=wrap;html=1;fillColor=#dae8fc;strokeColor=#6c8ebf;" vertex="1" parent="1">
          <mxGeometry x="1205" y="930" width="120" height="30" as="geometry" />
        </mxCell>
        <mxCell id="v6vCpeJF_FBUwYWR2NFN-78" value="&lt;font style=&quot;font-size: 16px;&quot;&gt;DWS&lt;/font&gt;" style="rounded=0;whiteSpace=wrap;html=1;fillColor=#dae8fc;strokeColor=#6c8ebf;" vertex="1" parent="1">
          <mxGeometry x="1206" y="980" width="120" height="30" as="geometry" />
        </mxCell>
        <mxCell id="v6vCpeJF_FBUwYWR2NFN-81" value="队列&lt;div&gt;（Kafka）&lt;/div&gt;" style="shape=process;whiteSpace=wrap;html=1;backgroundOutline=1;fillColor=#dae8fc;strokeColor=#6c8ebf;fontSize=16;" vertex="1" parent="1">
          <mxGeometry x="1440" y="893" width="120" height="60" as="geometry" />
        </mxCell>
        <mxCell id="v6vCpeJF_FBUwYWR2NFN-84" style="edgeStyle=orthogonalEdgeStyle;rounded=0;orthogonalLoop=1;jettySize=auto;html=1;" edge="1" parent="1" source="v6vCpeJF_FBUwYWR2NFN-81">
          <mxGeometry relative="1" as="geometry">
            <mxPoint x="1360" y="990" as="targetPoint" />
            <Array as="points">
              <mxPoint x="1600" y="923" />
              <mxPoint x="1600" y="990" />
            </Array>
          </mxGeometry>
        </mxCell>
        <mxCell id="v6vCpeJF_FBUwYWR2NFN-85" value="消费" style="edgeLabel;html=1;align=center;verticalAlign=middle;resizable=0;points=[];fontSize=14;" vertex="1" connectable="0" parent="v6vCpeJF_FBUwYWR2NFN-84">
          <mxGeometry x="0.1873" y="2" relative="1" as="geometry">
            <mxPoint as="offset" />
          </mxGeometry>
        </mxCell>
        <mxCell id="v6vCpeJF_FBUwYWR2NFN-89" style="edgeStyle=orthogonalEdgeStyle;rounded=0;orthogonalLoop=1;jettySize=auto;html=1;" edge="1" parent="1" source="v6vCpeJF_FBUwYWR2NFN-88" target="v6vCpeJF_FBUwYWR2NFN-62">
          <mxGeometry relative="1" as="geometry" />
        </mxCell>
        <mxCell id="v6vCpeJF_FBUwYWR2NFN-88" value="浏览器" style="rounded=1;whiteSpace=wrap;html=1;fillColor=#dae8fc;strokeColor=#6c8ebf;" vertex="1" parent="1">
          <mxGeometry x="200" y="843" width="120" height="60" as="geometry" />
        </mxCell>
        <mxCell id="v6vCpeJF_FBUwYWR2NFN-96" style="edgeStyle=orthogonalEdgeStyle;rounded=0;orthogonalLoop=1;jettySize=auto;html=1;entryX=0;entryY=0.5;entryDx=0;entryDy=0;" edge="1" parent="1" source="v6vCpeJF_FBUwYWR2NFN-90" target="v6vCpeJF_FBUwYWR2NFN-88">
          <mxGeometry relative="1" as="geometry" />
        </mxCell>
        <mxCell id="v6vCpeJF_FBUwYWR2NFN-90" value="tw" style="shape=umlActor;verticalLabelPosition=bottom;verticalAlign=top;html=1;outlineConnect=0;fillColor=#d5e8d4;strokeColor=#82b366;" vertex="1" parent="1">
          <mxGeometry x="60" y="730" width="30" height="60" as="geometry" />
        </mxCell>
        <mxCell id="v6vCpeJF_FBUwYWR2NFN-97" style="edgeStyle=orthogonalEdgeStyle;rounded=0;orthogonalLoop=1;jettySize=auto;html=1;entryX=0;entryY=0.75;entryDx=0;entryDy=0;" edge="1" parent="1" source="v6vCpeJF_FBUwYWR2NFN-91" target="v6vCpeJF_FBUwYWR2NFN-88">
          <mxGeometry relative="1" as="geometry" />
        </mxCell>
        <mxCell id="v6vCpeJF_FBUwYWR2NFN-91" value="tm" style="shape=umlActor;verticalLabelPosition=bottom;verticalAlign=top;html=1;outlineConnect=0;fillColor=#d5e8d4;strokeColor=#82b366;" vertex="1" parent="1">
          <mxGeometry x="60" y="890" width="30" height="60" as="geometry" />
        </mxCell>
        <mxCell id="v6vCpeJF_FBUwYWR2NFN-98" value="数据仓库&lt;div&gt;（分析洞察）&lt;/div&gt;" style="shape=callout;whiteSpace=wrap;html=1;perimeter=calloutPerimeter;position2=0.03;fillColor=#d5e8d4;strokeColor=#82b366;fontSize=16;" vertex="1" parent="1">
          <mxGeometry x="1370" y="713" width="120" height="80" as="geometry" />
        </mxCell>
      </root>
    </mxGraphModel>
  </diagram>
</mxfile>
